<svg version="1.1" viewBox="0.0 0.0 960.0 540.0" fill="none" stroke="none" stroke-linecap="square" stroke-miterlimit="10" xmlns:xlink="http://www.w3.org/1999/xlink" xmlns="http://www.w3.org/2000/svg"><clipPath id="g2b9e2ddb5da_1_123.0"><path d="m0 0l960.0 0l0 540.0l-960.0 0l0 -540.0z" clip-rule="nonzero"/></clipPath><g clip-path="url(#g2b9e2ddb5da_1_123.0)"><path fill="#ffffff" d="m0 0l960.0 0l0 540.0l-960.0 0z" fill-rule="evenodd"/><path fill="#93c47d" d="m218.06299 4.3621716l523.874 0l0 531.2756l-523.874 0z" fill-rule="evenodd"/><path stroke="#595959" stroke-width="1.0" stroke-linejoin="round" stroke-linecap="butt" d="m218.06299 4.3621716l523.874 0l0 531.2756l-523.874 0z" fill-rule="evenodd"/><path fill="#000000" fill-opacity="0.0" d="m283.09448 57.417324l389.3228 0l0 162.04724l-389.3228 0z" fill-rule="evenodd"/><path stroke="#ffffff" stroke-width="12.0" stroke-linejoin="round" stroke-linecap="butt" d="m283.09448 57.417324l389.3228 0l0 162.04724l-389.3228 0z" fill-rule="evenodd"/><path fill="#b7b7b7" d="m296.5013 67.83129l70.96063 0l0 141.00787l-70.96063 0z" fill-rule="evenodd"/><path stroke="#595959" stroke-width="1.0" stroke-linejoin="round" stroke-linecap="butt" d="m296.5013 67.83129l70.96063 0l0 141.00787l-70.96063 0z" fill-rule="evenodd"/><path fill="#b7b7b7" d="m584.81366 67.83129l70.96063 0l0 141.00787l-70.96063 0z" fill-rule="evenodd"/><path stroke="#595959" stroke-width="1.0" stroke-linejoin="round" stroke-linecap="butt" d="m584.81366 67.83129l70.96063 0l0 141.00787l-70.96063 0z" fill-rule="evenodd"/><path fill="#000000" fill-opacity="0.0" d="m430.07874 72.83465l0 131.21259" fill-rule="evenodd"/><path stroke="#ffffff" stroke-width="12.0" stroke-linejoin="round" stroke-linecap="butt" d="m430.07874 72.83465l0 131.21259" fill-rule="evenodd"/><path fill="#000000" fill-opacity="0.0" d="m529.92096 201.54333l-99.8425 -63.10237l99.8425 -63.102356z" fill-rule="evenodd"/><path stroke="#ffffff" stroke-width="12.0" stroke-linejoin="round" stroke-linecap="butt" d="m529.92096 201.54333l-99.8425 -63.10237l99.8425 -63.102356z" fill-rule="evenodd"/><path fill="#b7b7b7" d="m298.7454 319.70795l70.96063 0l0 141.00787l-70.96063 0z" fill-rule="evenodd"/><path stroke="#595959" stroke-width="1.0" stroke-linejoin="round" stroke-linecap="butt" d="m298.7454 319.70795l70.96063 0l0 141.00787l-70.96063 0z" fill-rule="evenodd"/><path fill="#b7b7b7" d="m587.05774 319.70795l70.96063 0l0 141.00787l-70.96063 0z" fill-rule="evenodd"/><path stroke="#595959" stroke-width="1.0" stroke-linejoin="round" stroke-linecap="butt" d="m587.05774 319.70795l70.96063 0l0 141.00787l-70.96063 0z" fill-rule="evenodd"/><path fill="#000000" fill-opacity="0.0" d="m285.3386 309.29398l389.32285 0l0 162.04724l-389.32285 0z" fill-rule="evenodd"/><path stroke="#ffffff" stroke-width="12.0" stroke-linejoin="round" stroke-linecap="butt" d="m285.3386 309.29398l389.32285 0l0 162.04724l-389.32285 0z" fill-rule="evenodd"/><path fill="#000000" fill-opacity="0.0" d="m432.32285 324.71127l0 131.21262" fill-rule="evenodd"/><path stroke="#ffffff" stroke-width="12.0" stroke-linejoin="round" stroke-linecap="butt" d="m432.32285 324.71127l0 131.21262" fill-rule="evenodd"/><path fill="#000000" fill-opacity="0.0" d="m532.16504 453.41998l-99.8425 -63.102386l99.8425 -63.102356z" fill-rule="evenodd"/><path stroke="#ffffff" stroke-width="12.0" stroke-linejoin="round" stroke-linecap="butt" d="m532.16504 453.41998l-99.8425 -63.102386l99.8425 -63.102356z" fill-rule="evenodd"/><path fill="#595959" d="m351.77692 333.51968l239.77954 0l0 113.38583l-239.77954 0z" fill-rule="evenodd"/><path stroke="#595959" stroke-width="4.0" stroke-linejoin="round" stroke-linecap="butt" d="m351.77692 333.51968l239.77954 0l0 113.38583l-239.77954 0z" fill-rule="evenodd"/><path fill="#ffff00" d="m591.5559 347.00525l42.960632 0l0 86.20471l-42.960632 0z" fill-rule="evenodd"/><path stroke="#595959" stroke-width="1.0" stroke-linejoin="round" stroke-linecap="butt" d="m591.5559 347.00525l42.960632 0l0 86.20471l-42.960632 0z" fill-rule="evenodd"/><path fill="#ffff00" d="m312.88925 347.00525l42.960632 0l0 86.20471l-42.960632 0z" fill-rule="evenodd"/><path stroke="#595959" stroke-width="1.0" stroke-linejoin="round" stroke-linecap="butt" d="m312.88925 347.00525l42.960632 0l0 86.20471l-42.960632 0z" fill-rule="evenodd"/><path fill="#000000" fill-opacity="0.0" d="m402.20996 441.64304l0.72442627 -101.82675" fill-rule="evenodd"/><path stroke="#efefef" stroke-width="12.0" stroke-linejoin="round" stroke-linecap="butt" d="m402.20996 441.64304l0.72442627 -101.82675" fill-rule="evenodd"/><path fill="#000000" fill-opacity="0.0" d="m413.32584 337.96588l156.6614 0l0 106.64566l-156.6614 0z" fill-rule="evenodd"/><path fill="#efefef" d="m434.2425 357.2762l54.0625 0l0 6.5625l-23.4375 0l0 58.25l-7.1875 0l0 -58.25l-23.4375 0l0 -6.5625zm89.296875 -0.390625l8.78125 0l0 43.28125l12.390625 0l0 6.171875l-12.390625 0l0 15.75l-7.03125 0l0 -15.75l-32.96875 0l0 -6.09375l31.21875 -43.359375zm1.75 43.28125l0 -23.046875q0 -6.640625 0.390625 -13.828125l-0.3125 0q-3.4375 6.796875 -5.859375 10.15625l-19.015625 26.71875l24.796875 0z" fill-rule="nonzero"/><path fill="#000000" fill-opacity="0.0" d="m615.7638 214.8084l126.17322 0l0 106.645676l-126.17322 0z" fill-rule="evenodd"/><path fill="#000000" d="m640.71826 230.69215q-3.171875 0 -5.0625 2.015625q-1.875 2.0 -1.875 5.390625q0 3.375 1.921875 5.375q1.9375 2.0 5.015625 2.0q2.5 0 4.625 -1.359375l0.65625 1.4375q-2.359375 1.53125 -5.453125 1.53125q-3.953125 0 -6.34375 -2.4375q-2.375 -2.453125 -2.375 -6.5625q0 -4.140625 2.34375 -6.5625q2.359375 -2.4375 6.375 -2.4375q3.09375 0 5.453125 1.546875l-0.65625 1.4375q-2.125 -1.375 -4.625 -1.375zm12.955566 3.4375q2.609375 0 3.734375 1.078125q1.140625 1.078125 1.140625 3.546875l0 4.734375q0 1.703125 0.359375 3.359375l-1.6875 0q-0.1875 -0.9375 -0.234375 -2.203125l-0.046875 0q-0.65625 1.140625 -1.875 1.796875q-1.21875 0.640625 -2.765625 0.640625q-1.71875 0 -2.75 -0.96875q-1.03125 -0.96875 -1.03125 -2.625q0 -2.09375 1.8125 -3.328125q1.828125 -1.234375 5.1875 -1.234375l1.28125 0l0 -0.125q0 -1.8125 -0.6875 -2.515625q-0.6875 -0.71875 -2.4375 -0.71875q-2.25 0 -4.203125 1.109375l-0.3125 -1.421875q2.0625 -1.125 4.515625 -1.125zm-3.4375 9.28125q0 1.078125 0.671875 1.703125q0.671875 0.609375 1.8125 0.609375q1.65625 0 2.859375 -1.1875q1.21875 -1.1875 1.21875 -2.921875l0 -1.34375l-1.28125 0q-2.515625 0 -3.90625 0.859375q-1.375 0.84375 -1.375 2.28125zm15.275757 -13.125l0 4.5625l4.71875 0l0 1.4375l-4.71875 0l0 6.546875q0 1.6875 0.453125 2.25q0.453125 0.5625 1.703125 0.5625q1.109375 0 2.109375 -0.40625l0.28125 1.421875q-1.21875 0.421875 -2.625 0.421875q-2.046875 0 -2.890625 -0.875q-0.84375 -0.875 -0.84375 -3.03125l0 -6.890625l-2.75 0l0 -1.4375l2.75 0l0 -4.5625l1.8125 0zm8.444214 -1.4375l1.75 0l0 7.65625l0.046875 0q1.578125 -2.375 4.203125 -2.375q2.109375 0 3.125 1.3125q1.03125 1.296875 1.03125 4.140625l0 7.265625l-1.734375 0l0 -7.125q0 -2.328125 -0.671875 -3.21875q-0.671875 -0.90625 -2.296875 -0.90625q-1.453125 0 -2.578125 1.40625q-1.125 1.390625 -1.125 3.171875l0 6.671875l-1.75 0l0 -18.0zm21.658203 8.0625q-1.09375 -1.34375 -3.0 -1.34375q-1.890625 0 -2.984375 1.34375q-1.078125 1.328125 -1.078125 3.703125q0 2.375 1.078125 3.703125q1.09375 1.328125 2.984375 1.328125q1.90625 0 3.0 -1.328125q1.09375 -1.328125 1.09375 -3.703125q0 -2.375 -1.09375 -3.703125zm1.28125 8.421875q-1.609375 1.75 -4.28125 1.75q-2.65625 0 -4.265625 -1.75q-1.609375 -1.75 -1.609375 -4.71875q0 -2.984375 1.609375 -4.734375q1.609375 -1.75 4.265625 -1.75q2.671875 0 4.28125 1.75q1.609375 1.75 1.609375 4.734375q0 2.96875 -1.609375 4.71875zm6.607483 -8.453125q-0.984375 1.3125 -0.984375 3.734375q0 2.421875 1.0 3.734375q1.015625 1.296875 2.71875 1.296875q1.625 0 2.640625 -1.265625q1.03125 -1.28125 1.03125 -3.609375l0 -0.328125q0 -2.28125 -1.03125 -3.578125q-1.015625 -1.296875 -2.640625 -1.296875q-1.75 0 -2.734375 1.3125zm-2.71875 3.734375q0 -3.15625 1.34375 -4.8125q1.34375 -1.671875 3.703125 -1.671875q2.703125 0 4.03125 2.28125l0.046875 0l0 -7.5625l1.75 0l0 18.0l-1.6875 0l-0.015625 -2.109375l-0.046875 0q-1.328125 2.34375 -4.078125 2.34375q-2.3125 0 -3.6875 -1.6875q-1.359375 -1.6875 -1.359375 -4.78125zm15.559448 0.671875q0.046875 2.03125 1.234375 3.21875q1.203125 1.171875 3.125 1.171875q1.84375 0 3.671875 -0.96875l0.484375 1.375q-2.015625 1.0 -4.328125 1.0q-2.6875 0 -4.34375 -1.75q-1.65625 -1.75 -1.65625 -4.71875q0 -3.03125 1.546875 -4.75q1.5625 -1.734375 4.21875 -1.734375q2.59375 0 4.015625 1.640625q1.4375 1.640625 1.4375 4.71875q0 0.3125 -0.046875 0.796875l-9.359375 0zm0 -1.390625l7.671875 0q-0.015625 -2.09375 -1.0 -3.21875q-0.984375 -1.125 -2.71875 -1.125q-1.796875 0 -2.84375 1.140625q-1.046875 1.125 -1.109375 3.203125z" fill-rule="nonzero"/><path fill="#000000" d="m640.2099 256.44528l1.796875 0q0 2.0625 -0.0625 3.84375l9.375 0l0 1.375q0 3.78125 -0.140625 6.296875q-0.125 2.5 -0.375 4.125q-0.25 1.625 -0.75 2.453125q-0.5 0.828125 -1.125 1.125q-0.609375 0.296875 -1.5625 0.296875q-2.0 0 -4.5625 -0.265625l0.140625 -1.734375q2.15625 0.25 3.9375 0.25q1.015625 0 1.484375 -0.703125q0.484375 -0.71875 0.75 -3.25q0.28125 -2.53125 0.28125 -7.734375l0 -0.5625l-7.578125 0q-0.4375 5.5 -2.015625 8.6875q-1.5625 3.171875 -4.9375 5.765625l-1.15625 -1.296875q2.015625 -1.53125 3.203125 -3.078125q1.203125 -1.546875 2.0 -4.0q0.8125 -2.46875 1.109375 -6.078125l-6.125 0l0 -1.671875l6.234375 0q0.078125 -1.75 0.078125 -3.84375zm35.828064 1.59375q-0.328125 5.953125 -1.90625 9.578125q-1.5625 3.609375 -4.71875 5.625q-3.140625 2.0 -8.484375 2.890625l-0.34375 -1.734375q4.890625 -0.890625 7.703125 -2.671875q2.8125 -1.796875 4.21875 -5.046875q1.40625 -3.265625 1.71875 -8.765625l1.8125 0.125zm-18.328125 0.921875l1.765625 -0.734375q2.078125 4.296875 3.734375 8.15625l-1.828125 0.703125q-2.015625 -4.65625 -3.671875 -8.125zm23.374939 8.953125l0 -1.8125l19.53125 0l0 1.8125l-19.53125 0zm34.71869 -9.109375l1.5625 -0.8125q1.234375 2.015625 2.453125 4.3125l-1.5625 0.765625q-0.953125 -1.796875 -2.453125 -4.265625zm3.5625 -1.015625l1.5625 -0.84375q1.34375 2.1875 2.515625 4.375l-1.578125 0.796875q-1.015625 -1.875 -2.5 -4.328125zm-8.90625 -0.3125l0 7.015625q6.625 1.578125 13.421875 4.125l-0.609375 1.75q-6.859375 -2.5625 -12.8125 -4.0l0 10.65625l-1.921875 0l0 -19.546875l1.921875 0z" fill-rule="nonzero"/><path fill="#000000" d="m658.3818 301.8234q-1.328125 -2.796875 -1.328125 -6.015625q0 -3.21875 1.328125 -6.015625q1.34375 -2.796875 3.859375 -4.90625l1.84375 0q-5.203125 4.421875 -5.203125 10.921875q0 6.5 5.203125 10.921875l-1.84375 0q-2.515625 -2.109375 -3.859375 -4.90625zm21.265503 -13.9375l0 7.15625l7.046936 0l0 1.53125l-7.046936 0l0 7.15625l-1.59375 0l0 -7.15625l-7.046875 0l0 -1.53125l7.046875 0l0 -7.15625l1.59375 0zm19.656189 1.90625q1.34375 2.796875 1.34375 6.015625q0 3.21875 -1.34375 6.015625q-1.328125 2.796875 -3.84375 4.90625l-1.84375 0q5.203125 -4.421875 5.203125 -10.921875q0 -6.5 -5.203125 -10.921875l1.84375 0q2.515625 2.109375 3.84375 4.90625z" fill-rule="nonzero"/><path fill="#000000" fill-opacity="0.0" d="m218.06299 214.8084l126.17322 0l0 106.645676l-126.17322 0z" fill-rule="evenodd"/><path fill="#000000" d="m246.34146 246.8484l6.40625 -17.515625l2.15625 0l6.390625 17.515625l-2.046875 0l-1.78125 -5.109375l-7.390625 0l-1.75 5.109375l-1.984375 0zm4.265625 -6.640625l6.34375 0l-3.15625 -9.15625l-0.046875 0l-3.140625 9.15625zm13.319458 -5.84375l1.6875 0l0.015625 2.234375l0.046875 0q0.71875 -1.15625 1.828125 -1.8125q1.125 -0.65625 2.421875 -0.65625q2.109375 0 3.125 1.3125q1.03125 1.296875 1.03125 4.140625l0 7.265625l-1.734375 0l0 -7.125q0 -2.328125 -0.671875 -3.21875q-0.671875 -0.90625 -2.296875 -0.90625q-1.390625 0 -2.546875 1.375q-1.15625 1.375 -1.15625 3.203125l0 6.671875l-1.75 0l0 -12.484375zm21.663208 2.546875q-1.09375 -1.34375 -3.0 -1.34375q-1.890625 0 -2.984375 1.34375q-1.078125 1.328125 -1.078125 3.703125q0 2.375 1.078125 3.703125q1.09375 1.328125 2.984375 1.328125q1.90625 0 3.0 -1.328125q1.09375 -1.328125 1.09375 -3.703125q0 -2.375 -1.09375 -3.703125zm1.28125 8.421875q-1.609375 1.75 -4.28125 1.75q-2.65625 0 -4.265625 -1.75q-1.609375 -1.75 -1.609375 -4.71875q0 -2.984375 1.609375 -4.734375q1.609375 -1.75 4.265625 -1.75q2.671875 0 4.28125 1.75q1.609375 1.75 1.609375 4.734375q0 2.96875 -1.609375 4.71875zm6.6074524 -8.453125q-0.984375 1.3125 -0.984375 3.734375q0 2.421875 1.0 3.734375q1.015625 1.296875 2.71875 1.296875q1.625 0 2.640625 -1.265625q1.03125 -1.28125 1.03125 -3.609375l0 -0.328125q0 -2.28125 -1.03125 -3.578125q-1.015625 -1.296875 -2.640625 -1.296875q-1.75 0 -2.734375 1.3125zm-2.71875 3.734375q0 -3.15625 1.34375 -4.8125q1.34375 -1.671875 3.703125 -1.671875q2.703125 0 4.03125 2.28125l0.046875 0l0 -7.5625l1.75 0l0 18.0l-1.6875 0l-0.015625 -2.109375l-0.046875 0q-1.328125 2.34375 -4.078125 2.34375q-2.3125 0 -3.6875 -1.6875q-1.359375 -1.6875 -1.359375 -4.78125zm15.559479 0.671875q0.046875 2.03125 1.234375 3.21875q1.203125 1.171875 3.125 1.171875q1.84375 0 3.671875 -0.96875l0.484375 1.375q-2.015625 1.0 -4.328125 1.0q-2.6875 0 -4.34375 -1.75q-1.65625 -1.75 -1.65625 -4.71875q0 -3.03125 1.546875 -4.75q1.5625 -1.734375 4.21875 -1.734375q2.59375 0 4.015625 1.640625q1.4375 1.640625 1.4375 4.71875q0 0.3125 -0.046875 0.796875l-9.359375 0zm0 -1.390625l7.671875 0q-0.015625 -2.09375 -1.0 -3.21875q-0.984375 -1.125 -2.71875 -1.125q-1.796875 0 -2.84375 1.140625q-1.046875 1.125 -1.109375 3.203125z" fill-rule="nonzero"/><path fill="#000000" d="m236.07164 260.16403l0 -1.625l18.96875 0l0 1.625q-0.71875 2.578125 -2.46875 4.640625q-1.734375 2.0625 -4.203125 3.265625l-0.96875 -1.5q4.390625 -2.171875 5.671875 -6.40625l-17.0 0zm7.09375 2.28125l1.8125 0q0 6.140625 -1.515625 9.296875q-1.5 3.140625 -5.15625 4.703125l-0.859375 -1.546875q3.140625 -1.3125 4.421875 -4.09375q1.296875 -2.78125 1.296875 -8.359375zm17.390549 12.140625q6.9375 -1.703125 10.109375 -5.515625q3.171875 -3.8125 3.84375 -11.34375l2.015625 0.1875q-0.484375 5.515625 -2.203125 9.15625q-1.71875 3.640625 -4.875 5.890625q-3.15625 2.234375 -8.234375 3.484375l-0.65625 -1.859375zm22.828033 -6.671875l0 -1.8125l19.53125 0l0 1.8125l-19.53125 0zm34.71869 -9.109375l1.5625 -0.8125q1.234375 2.015625 2.453125 4.3125l-1.5625 0.765625q-0.953125 -1.796875 -2.453125 -4.265625zm3.5625 -1.015625l1.5625 -0.84375q1.34375 2.1875 2.515625 4.375l-1.578125 0.796875q-1.015625 -1.875 -2.5 -4.328125zm-8.90625 -0.3125l0 7.015625q6.625 1.578125 13.421875 4.125l-0.609375 1.75q-6.859375 -2.5625 -12.8125 -4.0l0 10.65625l-1.921875 0l0 -19.546875l1.921875 0z" fill-rule="nonzero"/><path fill="#000000" d="m260.68097 301.8234q-1.328125 -2.796875 -1.328125 -6.015625q0 -3.21875 1.328125 -6.015625q1.34375 -2.796875 3.859375 -4.90625l1.84375 0q-5.203125 4.421875 -5.203125 10.921875q0 6.5 5.203125 10.921875l-1.84375 0q-2.515625 -2.109375 -3.859375 -4.90625zm10.703064 -5.109375l0 -1.8125l19.53125 0l0 1.8125l-19.53125 0zm30.218658 -6.921875q1.34375 2.796875 1.34375 6.015625q0 3.21875 -1.34375 6.015625q-1.328125 2.796875 -3.84375 4.90625l-1.84375 0q5.203125 -4.421875 5.203125 -10.921875q0 -6.5 -5.203125 -10.921875l1.84375 0q2.515625 2.109375 3.84375 4.90625z" fill-rule="nonzero"/><path fill="#000000" fill-opacity="0.0" d="m218.06256 4.3622046l81.19684 0l0 57.44882l-81.19684 0z" fill-rule="evenodd"/><path fill="#000000" d="m235.84653 27.326614l0 -17.1875l6.46875 0q1.71875 0 2.625 0.171875q1.265625 0.203125 2.109375 0.796875q0.859375 0.59375 1.375 1.671875q0.53125 1.0625 0.53125 2.328125q0 2.203126 -1.40625 3.718751q-1.390625 1.515625 -5.03125 1.515625l-4.40625 0l0 6.984375l-2.265625 0zm2.265625 -9.015625l4.4375 0q2.203125 0 3.125 -0.8125q0.9375 -0.828125 0.9375 -2.312501q0 -1.078125 -0.546875 -1.84375q-0.546875 -0.765625 -1.4375 -1.015625q-0.578125 -0.15625 -2.125 -0.15625l-4.390625 0l0 6.140626zm25.992188 2.984375l2.28125 0.578125q-0.71875 2.796875 -2.578125 4.28125q-1.859375 1.46875 -4.546875 1.46875q-2.765625 0 -4.5156097 -1.125q-1.734375 -1.140625 -2.640625 -3.28125q-0.90625 -2.15625 -0.90625 -4.609375q0 -2.687501 1.015625 -4.687501q1.03125 -2.0 2.921875 -3.03125q1.8906097 -1.03125 4.1718597 -1.03125q2.578125 0 4.328125 1.3125q1.765625 1.3125 2.453125 3.6875l-2.234375 0.53125q-0.609375 -1.875 -1.75 -2.734375q-1.125 -0.859375 -2.84375 -0.859375q-1.984375 0 -3.3124847 0.953125q-1.328125 0.953125 -1.875 2.546875q-0.53125 1.593751 -0.53125 3.296876q0 2.1875 0.625 3.828125q0.640625 1.640625 1.9843597 2.453125q1.359375 0.796875 2.921875 0.796875q1.921875 0 3.234375 -1.09375q1.328125 -1.109375 1.796875 -3.28125zm4.9882812 6.03125l0 -17.1875l6.4375 0q1.96875 0 3.15625 0.53125q1.1875 0.515625 1.859375 1.609375q0.6875 1.078125 0.6875 2.265625q0 1.09375 -0.609375 2.078126q-0.59375 0.96875 -1.796875 1.5625q1.5625 0.453125 2.390625 1.5625q0.84375 1.09375 0.84375 2.59375q0 1.203125 -0.515625 2.25q-0.5 1.03125 -1.25 1.59375q-0.75 0.5625 -1.890625 0.859375q-1.125 0.28125 -2.765625 0.28125l-6.546875 0zm2.265625 -9.96875l3.71875 0q1.515625 0 2.171875 -0.1875q0.859375 -0.265625 1.296875 -0.859375q0.4375 -0.59375095 0.4375 -1.500001q0 -0.859375 -0.40625 -1.5q-0.40625 -0.65625 -1.171875 -0.890625q-0.765625 -0.25 -2.609375 -0.25l-3.4375 0l0 5.187501zm0 7.9375l4.28125 0q1.09375 0 1.546875 -0.078125q0.78125 -0.140625 1.3125 -0.46875q0.53125 -0.328125 0.859375 -0.953125q0.34375 -0.625 0.34375 -1.453125q0 -0.953125 -0.5 -1.65625q-0.484375 -0.71875 -1.359375 -1.0q-0.875 -0.296875 -2.515625 -0.296875l-3.96875 0l0 5.90625z" fill-rule="nonzero"/><path fill="#000000" d="m256.87973 54.532864q-4.9687347 -1.40625 -7.5 -5.15625l-5.53125 0q-2.15625 4.21875 -7.3125 5.625l-0.75 -1.875q4.3125 -1.125 6.09375 -3.75l-5.71875 0l0 -1.5l5.4375 0l0 -7.125l-4.03125 0l0 -1.5l4.03125 0l0 -2.625l1.78125 0q0.9375 0.09375 0.09375 0.5625l0 2.0625l6.28125 0l0 -2.625l1.7812653 0q0.9375 0.09375 0.09375 0.5625l0 2.0625l3.84375 0l0 1.5l-3.84375 0l0 7.125l5.3437347 0l0 1.5l-5.4374847 0q1.3125 1.96875 6.0937347 3.1875l-0.75 1.96875zm-14.90625 -0.65625l0 -1.5l3.65625 0l0 -2.0625l1.78125 0q0.9375 0.09375 0.09375 0.5625l0 1.5l3.8437653 0l0 1.5l-3.8437653 0l0 1.875l8.062515 0l0 1.78125l-17.906265 0l0 -1.78125l7.96875 0l0 -1.875l-3.65625 0zm1.5 -13.125l0 1.40625l6.28125 0l0 -1.40625l-6.28125 0zm0 2.90625l0 1.3125l6.28125 0l0 -1.3125l-6.28125 0zm0 2.8125l0 1.40625l6.28125 0l0 -1.40625l-6.28125 0zm30.84375 -0.375q0.46875 2.90625 1.6875 4.96875q1.21875 -1.78125 1.6875 -4.96875l-3.375 0zm-3.65625 9.9375q2.625 -1.21875 4.125 -3.1875q-1.78125 -3.46875 -2.25 -6.75l-1.03125 0l0 1.96875q0 7.40625 -3.1875 10.03125l-1.125 -1.875q2.4375 -2.4375 2.4375 -8.0625l0 -9.84375l11.15625 0l0 1.78125l-9.28125 0l0 4.21875l6.46875 0l0.46875 -0.46875l1.59375 1.125q0.375 0.28125 -0.28125 0.65625q-0.75 4.03125 -2.53125 7.125q1.03125 1.5 4.125 3.0l-0.75 1.96875q-2.25 -0.9375 -4.59375 -3.375q-1.6875 2.15625 -4.59375 3.65625l-0.75 -1.96875zm-6.75 2.34375l0 -9.75q-1.40625 3.28125 -3.0 4.59375l-0.9375 -1.6875q3.09375 -3.5625 3.9375 -8.25l-3.375 0l0 -1.78125l3.375 0l0 -4.875l1.78125 0q0.75 0.09375 0.09375 0.5625l0 4.3125l3.09375 0l0 1.78125l-3.09375 0l0 3.28125q1.96875 1.125 3.09375 2.15625l-0.84375 1.875q-1.125 -0.84375 -2.25 -1.875l0 9.65625l-1.875 0z" fill-rule="nonzero"/><path fill="#000000" fill-opacity="0.0" d="m108.46593 91.073494l91.81102 0l0 57.448814l-91.81102 0z" fill-rule="evenodd"/><path fill="#000000" d="m129.44176 114.0379l0 -17.1875l2.265625 0l0 15.15625l8.46875 0l0 2.03125l-10.734375 0zm21.285156 -1.53125q-1.171875 0.984375 -2.265625 1.40625q-1.078125 0.40625 -2.3125 0.40625q-2.046875 0 -3.15625 -1.0q-1.09375 -1.0 -1.09375 -2.5625q0 -0.921875 0.40625 -1.671875q0.421875 -0.75 1.09375 -1.203125q0.671875 -0.46875 1.515625 -0.703125q0.625 -0.15625 1.875 -0.3125q2.5625 -0.3125 3.765625 -0.734375q0.015625 -0.421875 0.015625 -0.546875q0 -1.28125 -0.609375 -1.8125q-0.796875 -0.71875 -2.390625 -0.71875q-1.5 0 -2.203125 0.53125q-0.703125 0.515625 -1.046875 1.84375l-2.0625 -0.28125q0.28125 -1.328125 0.921875 -2.140625q0.640625 -0.8125 1.859375 -1.25q1.21875 -0.453125 2.828125 -0.453125q1.59375 0 2.59375 0.375q1.0 0.375 1.46875 0.953125q0.46875 0.5625 0.65625 1.4375q0.09375 0.53125 0.09375 1.9375l0 2.8125q0 2.9375 0.140625 3.71875q0.140625 0.78125 0.53125 1.5l-2.203125 0q-0.328125 -0.65625 -0.421875 -1.53125zm-0.171875 -4.71875q-1.15625 0.46875 -3.453125 0.796875q-1.296875 0.1875 -1.84375 0.421875q-0.53125 0.234375 -0.828125 0.6875q-0.28125 0.453125 -0.28125 1.0q0 0.84375 0.625 1.40625q0.640625 0.5625 1.875 0.5625q1.21875 0 2.171875 -0.53125q0.953125 -0.53125 1.390625 -1.453125q0.34375 -0.71875 0.34375 -2.109375l0 -0.78125zm5.3945312 6.25l0 -12.453125l1.90625 0l0 1.78125q1.375 -2.0625 3.953125 -2.0625q1.125 0 2.0625 0.40625q0.953125 0.40625 1.421875 1.0625q0.46875 0.65625 0.65625 1.5625q0.125 0.578125 0.125 2.046875l0 7.65625l-2.109375 0l0 -7.578125q0 -1.28125 -0.25 -1.921875q-0.25 -0.640625 -0.875 -1.015625q-0.625 -0.390625 -1.46875 -0.390625q-1.34375 0 -2.328125 0.859375q-0.984375 0.859375 -0.984375 3.25l0 6.796875l-2.109375 0zm21.425781 0l0 -1.578125q-1.1875 1.859375 -3.484375 1.859375q-1.484375 0 -2.734375 -0.8125q-1.25 -0.828125 -1.9375 -2.296875q-0.671875 -1.46875 -0.671875 -3.390625q0 -1.859375 0.609375 -3.375q0.625 -1.515625 1.859375 -2.328125q1.25 -0.8125 2.78125 -0.8125q1.125 0 2.0 0.484375q0.890625 0.46875 1.4375 1.234375l0 -6.171875l2.09375 0l0 17.1875l-1.953125 0zm-6.671875 -6.21875q0 2.390625 1.0 3.578125q1.015625 1.1875 2.390625 1.1875q1.390625 0 2.34375 -1.125q0.96875 -1.140625 0.96875 -3.453125q0 -2.5625 -0.984375 -3.75q-0.984375 -1.203125 -2.421875 -1.203125q-1.40625 0 -2.359375 1.15625q-0.9375 1.140625 -0.9375 3.609375z" fill-rule="nonzero"/><path fill="#000000" d="m130.98082 142.93166q9.09375 -2.34375 10.21875 -9.84375l-14.250008 0l0 -2.0625l14.343758 0l0.84375 -0.28125l1.6875 1.03125q0.5625 0.46875 -0.1875 0.84375q-1.5 9.375 -10.96875 12.1875l-1.6875 -1.875zm10.59375 -15.187508l-12.9375 0l0 -2.0625l12.9375 0l0 2.0625zm23.15625 4.2187576q-4.96875 10.3125 -16.6875 10.875q-0.46875 1.21875 -0.9375 0.1875l-0.75 -2.4375q12.1875 -0.28125 16.40625 -10.03125l1.96875 1.40625zm-13.21875 0q-2.53125 -2.34375 -4.78125 -3.84375l1.59375 -1.9687576q1.96875 1.21875 4.96875 4.0312576l-1.78125 1.78125zm27.5625 5.34375q-4.96875 -2.53125 -8.15625 -3.375l0 9.75l-2.15625 0l0 -18.750008l1.875 0q1.125 0.09375 0.28125 0.75l0 5.9062576q4.59375 1.3125 9.28125 3.5625l-1.125 2.15625zm-0.1875 -8.25q-1.59375 -1.9687576 -3.1875 -3.1875076l1.21875 -0.9375q1.59375 1.21875 3.1875 3.1875076l-1.21875 0.9375zm2.25 -1.7812576q-1.21875 -1.59375 -3.09375 -3.09375l1.21875 -0.9375q1.59375 1.125 3.09375 3.09375l-1.21875 0.9375z" fill-rule="nonzero"/><path fill="#000000" fill-opacity="0.0" d="m200.27695 119.7979l118.04724 23.59056" fill-rule="evenodd"/><path stroke="#595959" stroke-width="1.0" stroke-linejoin="round" stroke-linecap="butt" d="m200.27695 119.7979l112.163574 22.414764" fill-rule="evenodd"/><path fill="#595959" stroke="#595959" stroke-width="1.0" stroke-linecap="butt" d="m312.11685 143.83237l4.773773 -0.73039246l-4.1264343 -2.509018z" fill-rule="evenodd"/><path fill="#000000" fill-opacity="0.0" d="m763.2717 91.073494l91.810974 0l0 57.448814l-91.810974 0z" fill-rule="evenodd"/><path fill="#000000" d="m784.2475 114.0379l0 -17.1875l2.265625 0l0 15.15625l8.46875 0l0 2.03125l-10.734375 0zm21.285156 -1.53125q-1.171875 0.984375 -2.265625 1.40625q-1.078125 0.40625 -2.3125 0.40625q-2.046875 0 -3.15625 -1.0q-1.09375 -1.0 -1.09375 -2.5625q0 -0.921875 0.40625 -1.671875q0.421875 -0.75 1.09375 -1.203125q0.671875 -0.46875 1.515625 -0.703125q0.625 -0.15625 1.875 -0.3125q2.5625 -0.3125 3.765625 -0.734375q0.015625 -0.421875 0.015625 -0.546875q0 -1.28125 -0.609375 -1.8125q-0.796875 -0.71875 -2.390625 -0.71875q-1.5 0 -2.203125 0.53125q-0.703125 0.515625 -1.046875 1.84375l-2.0625 -0.28125q0.28125 -1.328125 0.921875 -2.140625q0.640625 -0.8125 1.859375 -1.25q1.21875 -0.453125 2.828125 -0.453125q1.59375 0 2.59375 0.375q1.0 0.375 1.46875 0.953125q0.46875 0.5625 0.65625 1.4375q0.09375 0.53125 0.09375 1.9375l0 2.8125q0 2.9375 0.140625 3.71875q0.140625 0.78125 0.53125 1.5l-2.203125 0q-0.328125 -0.65625 -0.421875 -1.53125zm-0.171875 -4.71875q-1.15625 0.46875 -3.453125 0.796875q-1.296875 0.1875 -1.84375 0.421875q-0.53125 0.234375 -0.828125 0.6875q-0.28125 0.453125 -0.28125 1.0q0 0.84375 0.625 1.40625q0.640625 0.5625 1.875 0.5625q1.21875 0 2.171875 -0.53125q0.953125 -0.53125 1.390625 -1.453125q0.34375 -0.71875 0.34375 -2.109375l0 -0.78125zm5.3945312 6.25l0 -12.453125l1.90625 0l0 1.78125q1.375 -2.0625 3.953125 -2.0625q1.125 0 2.0625 0.40625q0.953125 0.40625 1.421875 1.0625q0.46875 0.65625 0.65625 1.5625q0.125 0.578125 0.125 2.046875l0 7.65625l-2.109375 0l0 -7.578125q0 -1.28125 -0.25 -1.921875q-0.25 -0.640625 -0.875 -1.015625q-0.625 -0.390625 -1.46875 -0.390625q-1.34375 0 -2.328125 0.859375q-0.984375 0.859375 -0.984375 3.25l0 6.796875l-2.109375 0zm21.425781 0l0 -1.578125q-1.1875 1.859375 -3.484375 1.859375q-1.484375 0 -2.734375 -0.8125q-1.25 -0.828125 -1.9375 -2.296875q-0.671875 -1.46875 -0.671875 -3.390625q0 -1.859375 0.609375 -3.375q0.625 -1.515625 1.859375 -2.328125q1.25 -0.8125 2.78125 -0.8125q1.125 0 2.0 0.484375q0.890625 0.46875 1.4375 1.234375l0 -6.171875l2.09375 0l0 17.1875l-1.953125 0zm-6.671875 -6.21875q0 2.390625 1.0 3.578125q1.015625 1.1875 2.390625 1.1875q1.390625 0 2.34375 -1.125q0.96875 -1.140625 0.96875 -3.453125q0 -2.5625 -0.984375 -3.75q-0.984375 -1.203125 -2.421875 -1.203125q-1.40625 0 -2.359375 1.15625q-0.9375 1.140625 -0.9375 3.609375z" fill-rule="nonzero"/><path fill="#000000" d="m785.78656 142.93166q9.09375 -2.34375 10.21875 -9.84375l-14.25 0l0 -2.0625l14.34375 0l0.84375 -0.28125l1.6875 1.03125q0.5625 0.46875 -0.1875 0.84375q-1.5 9.375 -10.96875 12.1875l-1.6875 -1.875zm10.59375 -15.187508l-12.9375 0l0 -2.0625l12.9375 0l0 2.0625zm23.15625 4.2187576q-4.96875 10.3125 -16.6875 10.875q-0.46875 1.21875 -0.9375 0.1875l-0.75 -2.4375q12.1875 -0.28125 16.40625 -10.03125l1.96875 1.40625zm-13.21875 0q-2.53125 -2.34375 -4.78125 -3.84375l1.59375 -1.9687576q1.96875 1.21875 4.96875 4.0312576l-1.78125 1.78125zm27.5625 5.34375q-4.96875 -2.53125 -8.15625 -3.375l0 9.75l-2.15625 0l0 -18.750008l1.875 0q1.125 0.09375 0.28125 0.75l0 5.9062576q4.59375 1.3125 9.28125 3.5625l-1.125 2.15625zm-0.1875 -8.25q-1.59375 -1.9687576 -3.1875 -3.1875076l1.21875 -0.9375q1.59375 1.21875 3.1875 3.1875076l-1.21875 0.9375zm2.25 -1.7812576q-1.21875 -1.59375 -3.09375 -3.09375l1.21875 -0.9375q1.59375 1.125 3.09375 3.09375l-1.21875 0.9375z" fill-rule="nonzero"/><path fill="#000000" fill-opacity="0.0" d="m763.2717 119.7979l-128.75592 30.047241" fill-rule="evenodd"/><path stroke="#595959" stroke-width="1.0" stroke-linejoin="round" stroke-linecap="butt" d="m763.2717 119.7979l-122.9129 28.683685" fill-rule="evenodd"/><path fill="#595959" stroke="#595959" stroke-width="1.0" stroke-linecap="butt" d="m639.9834 146.87308l-4.0439453 2.6398315l4.794739 0.5771942z" fill-rule="evenodd"/></g></svg>