<svg version="1.1" viewBox="0.0 0.0 960.0 540.0" fill="none" stroke="none" stroke-linecap="square" stroke-miterlimit="10" xmlns:xlink="http://www.w3.org/1999/xlink" xmlns="http://www.w3.org/2000/svg"><clipPath id="g2b9e2ddb5da_1_150.0"><path d="m0 0l960.0 0l0 540.0l-960.0 0l0 -540.0z" clip-rule="nonzero"/></clipPath><g clip-path="url(#g2b9e2ddb5da_1_150.0)"><path fill="#ffffff" d="m0 0l960.0 0l0 540.0l-960.0 0z" fill-rule="evenodd"/><path fill="#93c47d" d="m218.06299 4.3621716l523.874 0l0 531.2756l-523.874 0z" fill-rule="evenodd"/><path stroke="#595959" stroke-width="1.0" stroke-linejoin="round" stroke-linecap="butt" d="m218.06299 4.3621716l523.874 0l0 531.2756l-523.874 0z" fill-rule="evenodd"/><path fill="#000000" fill-opacity="0.0" d="m218.06256 4.3622046l81.19684 0l0 57.44882l-81.19684 0z" fill-rule="evenodd"/><path fill="#000000" d="m235.84653 27.326614l0 -17.1875l6.46875 0q1.71875 0 2.625 0.171875q1.265625 0.203125 2.109375 0.796875q0.859375 0.59375 1.375 1.671875q0.53125 1.0625 0.53125 2.328125q0 2.203126 -1.40625 3.718751q-1.390625 1.515625 -5.03125 1.515625l-4.40625 0l0 6.984375l-2.265625 0zm2.265625 -9.015625l4.4375 0q2.203125 0 3.125 -0.8125q0.9375 -0.828125 0.9375 -2.312501q0 -1.078125 -0.546875 -1.84375q-0.546875 -0.765625 -1.4375 -1.015625q-0.578125 -0.15625 -2.125 -0.15625l-4.390625 0l0 6.140626zm25.992188 2.984375l2.28125 0.578125q-0.71875 2.796875 -2.578125 4.28125q-1.859375 1.46875 -4.546875 1.46875q-2.765625 0 -4.5156097 -1.125q-1.734375 -1.140625 -2.640625 -3.28125q-0.90625 -2.15625 -0.90625 -4.609375q0 -2.687501 1.015625 -4.687501q1.03125 -2.0 2.921875 -3.03125q1.8906097 -1.03125 4.1718597 -1.03125q2.578125 0 4.328125 1.3125q1.765625 1.3125 2.453125 3.6875l-2.234375 0.53125q-0.609375 -1.875 -1.75 -2.734375q-1.125 -0.859375 -2.84375 -0.859375q-1.984375 0 -3.3124847 0.953125q-1.328125 0.953125 -1.875 2.546875q-0.53125 1.593751 -0.53125 3.296876q0 2.1875 0.625 3.828125q0.640625 1.640625 1.9843597 2.453125q1.359375 0.796875 2.921875 0.796875q1.921875 0 3.234375 -1.09375q1.328125 -1.109375 1.796875 -3.28125zm4.9882812 6.03125l0 -17.1875l6.4375 0q1.96875 0 3.15625 0.53125q1.1875 0.515625 1.859375 1.609375q0.6875 1.078125 0.6875 2.265625q0 1.09375 -0.609375 2.078126q-0.59375 0.96875 -1.796875 1.5625q1.5625 0.453125 2.390625 1.5625q0.84375 1.09375 0.84375 2.59375q0 1.203125 -0.515625 2.25q-0.5 1.03125 -1.25 1.59375q-0.75 0.5625 -1.890625 0.859375q-1.125 0.28125 -2.765625 0.28125l-6.546875 0zm2.265625 -9.96875l3.71875 0q1.515625 0 2.171875 -0.1875q0.859375 -0.265625 1.296875 -0.859375q0.4375 -0.59375095 0.4375 -1.500001q0 -0.859375 -0.40625 -1.5q-0.40625 -0.65625 -1.171875 -0.890625q-0.765625 -0.25 -2.609375 -0.25l-3.4375 0l0 5.187501zm0 7.9375l4.28125 0q1.09375 0 1.546875 -0.078125q0.78125 -0.140625 1.3125 -0.46875q0.53125 -0.328125 0.859375 -0.953125q0.34375 -0.625 0.34375 -1.453125q0 -0.953125 -0.5 -1.65625q-0.484375 -0.71875 -1.359375 -1.0q-0.875 -0.296875 -2.515625 -0.296875l-3.96875 0l0 5.90625z" fill-rule="nonzero"/><path fill="#000000" d="m256.87973 54.532864q-4.9687347 -1.40625 -7.5 -5.15625l-5.53125 0q-2.15625 4.21875 -7.3125 5.625l-0.75 -1.875q4.3125 -1.125 6.09375 -3.75l-5.71875 0l0 -1.5l5.4375 0l0 -7.125l-4.03125 0l0 -1.5l4.03125 0l0 -2.625l1.78125 0q0.9375 0.09375 0.09375 0.5625l0 2.0625l6.28125 0l0 -2.625l1.7812653 0q0.9375 0.09375 0.09375 0.5625l0 2.0625l3.84375 0l0 1.5l-3.84375 0l0 7.125l5.3437347 0l0 1.5l-5.4374847 0q1.3125 1.96875 6.0937347 3.1875l-0.75 1.96875zm-14.90625 -0.65625l0 -1.5l3.65625 0l0 -2.0625l1.78125 0q0.9375 0.09375 0.09375 0.5625l0 1.5l3.8437653 0l0 1.5l-3.8437653 0l0 1.875l8.062515 0l0 1.78125l-17.906265 0l0 -1.78125l7.96875 0l0 -1.875l-3.65625 0zm1.5 -13.125l0 1.40625l6.28125 0l0 -1.40625l-6.28125 0zm0 2.90625l0 1.3125l6.28125 0l0 -1.3125l-6.28125 0zm0 2.8125l0 1.40625l6.28125 0l0 -1.40625l-6.28125 0zm30.84375 -0.375q0.46875 2.90625 1.6875 4.96875q1.21875 -1.78125 1.6875 -4.96875l-3.375 0zm-3.65625 9.9375q2.625 -1.21875 4.125 -3.1875q-1.78125 -3.46875 -2.25 -6.75l-1.03125 0l0 1.96875q0 7.40625 -3.1875 10.03125l-1.125 -1.875q2.4375 -2.4375 2.4375 -8.0625l0 -9.84375l11.15625 0l0 1.78125l-9.28125 0l0 4.21875l6.46875 0l0.46875 -0.46875l1.59375 1.125q0.375 0.28125 -0.28125 0.65625q-0.75 4.03125 -2.53125 7.125q1.03125 1.5 4.125 3.0l-0.75 1.96875q-2.25 -0.9375 -4.59375 -3.375q-1.6875 2.15625 -4.59375 3.65625l-0.75 -1.96875zm-6.75 2.34375l0 -9.75q-1.40625 3.28125 -3.0 4.59375l-0.9375 -1.6875q3.09375 -3.5625 3.9375 -8.25l-3.375 0l0 -1.78125l3.375 0l0 -4.875l1.78125 0q0.75 0.09375 0.09375 0.5625l0 4.3125l3.09375 0l0 1.78125l-3.09375 0l0 3.28125q1.96875 1.125 3.09375 2.15625l-0.84375 1.875q-1.125 -0.84375 -2.25 -1.875l0 9.65625l-1.875 0z" fill-rule="nonzero"/><path fill="#b7b7b7" d="m400.66666 148.46466l-70.96063 0l0 -55.93701l70.96063 0z" fill-rule="evenodd"/><path stroke="#595959" stroke-width="1.0" stroke-linejoin="round" stroke-linecap="butt" d="m400.66666 148.46466l-70.96063 0l0 -55.93701l70.96063 0z" fill-rule="evenodd"/><path fill="#000000" d="m400.66666 98.761696l0 0c0 -14.916336 12.092102 -27.008415 27.008423 -27.008415l108.030426 0l0 0c7.163086 0 14.032776 2.84552 19.09784 7.9105835c5.0650635 5.065056 7.9105835 11.934753 7.9105835 19.097832l0 115.90443c0 14.916336 -12.092102 27.008423 -27.008423 27.008423l-108.030426 0l0 0c-14.916321 0 -27.008423 -12.092087 -27.008423 -27.008423z" fill-rule="evenodd"/><path stroke="#595959" stroke-width="1.0" stroke-linejoin="round" stroke-linecap="butt" d="m400.66666 98.761696l0 0c0 -14.916336 12.092102 -27.008415 27.008423 -27.008415l108.030426 0l0 0c7.163086 0 14.032776 2.84552 19.09784 7.9105835c5.0650635 5.065056 7.9105835 11.934753 7.9105835 19.097832l0 115.90443c0 14.916336 -12.092102 27.008423 -27.008423 27.008423l-108.030426 0l0 0c-14.916321 0 -27.008423 -12.092087 -27.008423 -27.008423z" fill-rule="evenodd"/><path fill="#b7b7b7" d="m400.66666 216.80324l-70.96063 0l0 -55.93701l70.96063 0z" fill-rule="evenodd"/><path stroke="#595959" stroke-width="1.0" stroke-linejoin="round" stroke-linecap="butt" d="m400.66666 216.80324l-70.96063 0l0 -55.93701l70.96063 0z" fill-rule="evenodd"/><path fill="#b7b7b7" d="m633.67456 216.80324l-70.96063 0l0 -55.93701l70.96063 0z" fill-rule="evenodd"/><path stroke="#595959" stroke-width="1.0" stroke-linejoin="round" stroke-linecap="butt" d="m633.67456 216.80324l-70.96063 0l0 -55.93701l70.96063 0z" fill-rule="evenodd"/><path fill="#000000" fill-opacity="0.0" d="m664.2651 158.14699l-45.165344 -105.00788" fill-rule="evenodd"/><path stroke="#ffffff" stroke-width="12.0" stroke-linejoin="round" stroke-linecap="butt" d="m664.2651 158.14699l-45.165344 -105.00788" fill-rule="evenodd"/><path fill="#000000" fill-opacity="0.0" d="m292.8819 56.698162l328.37793 -0.7244072" fill-rule="evenodd"/><path stroke="#ffffff" stroke-width="12.0" stroke-linejoin="round" stroke-linecap="butt" d="m292.8819 56.698162l328.37793 -0.7244072" fill-rule="evenodd"/><path fill="#b7b7b7" d="m633.67456 148.46466l-70.96063 0l0 -55.93701l70.96063 0z" fill-rule="evenodd"/><path stroke="#595959" stroke-width="1.0" stroke-linejoin="round" stroke-linecap="butt" d="m633.67456 148.46466l-70.96063 0l0 -55.93701l70.96063 0z" fill-rule="evenodd"/><path fill="#000000" fill-opacity="0.0" d="m292.8819 257.45407l374.2362 -0.72442627" fill-rule="evenodd"/><path stroke="#ffffff" stroke-width="12.0" stroke-linejoin="round" stroke-linecap="butt" d="m292.8819 257.45407l374.2362 -0.72442627" fill-rule="evenodd"/><path fill="#b7b7b7" d="m400.66666 392.70612l-70.96063 0l0 -55.93698l70.96063 0z" fill-rule="evenodd"/><path stroke="#595959" stroke-width="1.0" stroke-linejoin="round" stroke-linecap="butt" d="m400.66666 392.70612l-70.96063 0l0 -55.93698l70.96063 0z" fill-rule="evenodd"/><path fill="#000000" d="m400.66666 343.00317l0 0c0 -14.916351 12.092102 -27.008423 27.008423 -27.008423l108.030426 0l0 0c7.163086 0 14.032776 2.84552 19.09784 7.9105835c5.0650635 5.0650635 7.9105835 11.934753 7.9105835 19.09784l0 115.90442c0 14.916351 -12.092102 27.008423 -27.008423 27.008423l-108.030426 0l0 0c-14.916321 0 -27.008423 -12.092072 -27.008423 -27.008423z" fill-rule="evenodd"/><path stroke="#595959" stroke-width="1.0" stroke-linejoin="round" stroke-linecap="butt" d="m400.66666 343.00317l0 0c0 -14.916351 12.092102 -27.008423 27.008423 -27.008423l108.030426 0l0 0c7.163086 0 14.032776 2.84552 19.09784 7.9105835c5.0650635 5.0650635 7.9105835 11.934753 7.9105835 19.09784l0 115.90442c0 14.916351 -12.092102 27.008423 -27.008423 27.008423l-108.030426 0l0 0c-14.916321 0 -27.008423 -12.092072 -27.008423 -27.008423z" fill-rule="evenodd"/><path fill="#b7b7b7" d="m400.66666 461.0447l-70.96063 0l0 -55.93701l70.96063 0z" fill-rule="evenodd"/><path stroke="#595959" stroke-width="1.0" stroke-linejoin="round" stroke-linecap="butt" d="m400.66666 461.0447l-70.96063 0l0 -55.93701l70.96063 0z" fill-rule="evenodd"/><path fill="#b7b7b7" d="m633.67456 461.0447l-70.96063 0l0 -55.93701l70.96063 0z" fill-rule="evenodd"/><path stroke="#595959" stroke-width="1.0" stroke-linejoin="round" stroke-linecap="butt" d="m633.67456 461.0447l-70.96063 0l0 -55.93701l70.96063 0z" fill-rule="evenodd"/><path fill="#000000" fill-opacity="0.0" d="m664.2651 402.38846l-45.165344 -105.00787" fill-rule="evenodd"/><path stroke="#ffffff" stroke-width="12.0" stroke-linejoin="round" stroke-linecap="butt" d="m664.2651 402.38846l-45.165344 -105.00787" fill-rule="evenodd"/><path fill="#000000" fill-opacity="0.0" d="m292.8819 300.93964l328.37793 -0.72442627" fill-rule="evenodd"/><path stroke="#ffffff" stroke-width="12.0" stroke-linejoin="round" stroke-linecap="butt" d="m292.8819 300.93964l328.37793 -0.72442627" fill-rule="evenodd"/><path fill="#b7b7b7" d="m633.67456 392.70612l-70.96063 0l0 -55.93698l70.96063 0z" fill-rule="evenodd"/><path stroke="#595959" stroke-width="1.0" stroke-linejoin="round" stroke-linecap="butt" d="m633.67456 392.70612l-70.96063 0l0 -55.93698l70.96063 0z" fill-rule="evenodd"/><path fill="#000000" fill-opacity="0.0" d="m292.8819 501.69553l374.2362 -0.72439575" fill-rule="evenodd"/><path stroke="#ffffff" stroke-width="12.0" stroke-linejoin="round" stroke-linecap="butt" d="m292.8819 501.69553l374.2362 -0.72439575" fill-rule="evenodd"/><path fill="#eeeeee" d="m414.89764 336.769l133.95276 0l0 124.28348l-133.95276 0z" fill-rule="evenodd"/><path stroke="#595959" stroke-width="4.0" stroke-linejoin="round" stroke-linecap="butt" d="m414.89764 336.769l133.95276 0l0 124.28348l-133.95276 0z" fill-rule="evenodd"/><path fill="#eeeeee" d="m450.96063 400.78873l0 0c0 -15.446594 13.001373 -27.968506 29.039368 -27.968506l0 0c7.701721 0 15.087982 2.9466553 20.533936 8.191772c5.4459534 5.245117 8.505432 12.359009 8.505432 19.776733l0 0c0 15.446564 -13.001373 27.968506 -29.039368 27.968506l0 0c-16.037994 0 -29.039368 -12.521942 -29.039368 -27.968506z" fill-rule="evenodd"/><path stroke="#595959" stroke-width="4.0" stroke-linejoin="round" stroke-linecap="butt" d="m450.96063 400.78873l0 0c0 -15.446594 13.001373 -27.968506 29.039368 -27.968506l0 0c7.701721 0 15.087982 2.9466553 20.533936 8.191772c5.4459534 5.245117 8.505432 12.359009 8.505432 19.776733l0 0c0 15.446564 -13.001373 27.968506 -29.039368 27.968506l0 0c-16.037994 0 -29.039368 -12.521942 -29.039368 -27.968506z" fill-rule="evenodd"/><path fill="#000000" fill-opacity="0.0" d="m440.8924 337.76642l1.7322693 123.40155" fill-rule="evenodd"/><path stroke="#595959" stroke-width="4.0" stroke-linejoin="round" stroke-linecap="butt" d="m440.8924 337.76642l1.7322693 123.40155" fill-rule="evenodd"/><path fill="#000000" fill-opacity="0.0" d="m516.79004 337.18896l2.897644 122.834656" fill-rule="evenodd"/><path stroke="#595959" stroke-width="4.0" stroke-linejoin="round" stroke-linecap="butt" d="m516.79004 337.18896l2.897644 122.834656" fill-rule="evenodd"/><path fill="#ffff00" d="m548.8504 350.1706l60.236206 0l14.566956 14.566925l0 14.566956l-74.80316 0z" fill-rule="evenodd"/><path stroke="#595959" stroke-width="1.0" stroke-linejoin="round" stroke-linecap="butt" d="m548.8504 350.1706l60.236206 0l14.566956 14.566925l0 14.566956l-74.80316 0z" fill-rule="evenodd"/><path fill="#ffff00" d="m547.76904 418.5092l74.80316 0l0 29.13385l-74.80316 0z" fill-rule="evenodd"/><path stroke="#595959" stroke-width="1.0" stroke-linejoin="round" stroke-linecap="butt" d="m547.76904 418.5092l74.80316 0l0 29.13385l-74.80316 0z" fill-rule="evenodd"/><path fill="#ffff00" d="m336.34647 418.5092l78.55118 0l0 29.13385l-78.55118 0z" fill-rule="evenodd"/><path stroke="#595959" stroke-width="1.0" stroke-linejoin="round" stroke-linecap="butt" d="m336.34647 418.5092l78.55118 0l0 29.13385l-78.55118 0z" fill-rule="evenodd"/><path fill="#ffff00" d="m336.34647 353.49344l78.55118 0l0 29.13385l-78.55118 0z" fill-rule="evenodd"/><path stroke="#595959" stroke-width="1.0" stroke-linejoin="round" stroke-linecap="butt" d="m336.34647 353.49344l78.55118 0l0 29.13385l-78.55118 0z" fill-rule="evenodd"/><path fill="#000000" fill-opacity="0.0" d="m108.46593 91.073494l91.81102 0l0 57.448814l-91.81102 0z" fill-rule="evenodd"/><path fill="#000000" d="m129.44176 114.0379l0 -17.1875l2.265625 0l0 15.15625l8.46875 0l0 2.03125l-10.734375 0zm21.285156 -1.53125q-1.171875 0.984375 -2.265625 1.40625q-1.078125 0.40625 -2.3125 0.40625q-2.046875 0 -3.15625 -1.0q-1.09375 -1.0 -1.09375 -2.5625q0 -0.921875 0.40625 -1.671875q0.421875 -0.75 1.09375 -1.203125q0.671875 -0.46875 1.515625 -0.703125q0.625 -0.15625 1.875 -0.3125q2.5625 -0.3125 3.765625 -0.734375q0.015625 -0.421875 0.015625 -0.546875q0 -1.28125 -0.609375 -1.8125q-0.796875 -0.71875 -2.390625 -0.71875q-1.5 0 -2.203125 0.53125q-0.703125 0.515625 -1.046875 1.84375l-2.0625 -0.28125q0.28125 -1.328125 0.921875 -2.140625q0.640625 -0.8125 1.859375 -1.25q1.21875 -0.453125 2.828125 -0.453125q1.59375 0 2.59375 0.375q1.0 0.375 1.46875 0.953125q0.46875 0.5625 0.65625 1.4375q0.09375 0.53125 0.09375 1.9375l0 2.8125q0 2.9375 0.140625 3.71875q0.140625 0.78125 0.53125 1.5l-2.203125 0q-0.328125 -0.65625 -0.421875 -1.53125zm-0.171875 -4.71875q-1.15625 0.46875 -3.453125 0.796875q-1.296875 0.1875 -1.84375 0.421875q-0.53125 0.234375 -0.828125 0.6875q-0.28125 0.453125 -0.28125 1.0q0 0.84375 0.625 1.40625q0.640625 0.5625 1.875 0.5625q1.21875 0 2.171875 -0.53125q0.953125 -0.53125 1.390625 -1.453125q0.34375 -0.71875 0.34375 -2.109375l0 -0.78125zm5.3945312 6.25l0 -12.453125l1.90625 0l0 1.78125q1.375 -2.0625 3.953125 -2.0625q1.125 0 2.0625 0.40625q0.953125 0.40625 1.421875 1.0625q0.46875 0.65625 0.65625 1.5625q0.125 0.578125 0.125 2.046875l0 7.65625l-2.109375 0l0 -7.578125q0 -1.28125 -0.25 -1.921875q-0.25 -0.640625 -0.875 -1.015625q-0.625 -0.390625 -1.46875 -0.390625q-1.34375 0 -2.328125 0.859375q-0.984375 0.859375 -0.984375 3.25l0 6.796875l-2.109375 0zm21.425781 0l0 -1.578125q-1.1875 1.859375 -3.484375 1.859375q-1.484375 0 -2.734375 -0.8125q-1.25 -0.828125 -1.9375 -2.296875q-0.671875 -1.46875 -0.671875 -3.390625q0 -1.859375 0.609375 -3.375q0.625 -1.515625 1.859375 -2.328125q1.25 -0.8125 2.78125 -0.8125q1.125 0 2.0 0.484375q0.890625 0.46875 1.4375 1.234375l0 -6.171875l2.09375 0l0 17.1875l-1.953125 0zm-6.671875 -6.21875q0 2.390625 1.0 3.578125q1.015625 1.1875 2.390625 1.1875q1.390625 0 2.34375 -1.125q0.96875 -1.140625 0.96875 -3.453125q0 -2.5625 -0.984375 -3.75q-0.984375 -1.203125 -2.421875 -1.203125q-1.40625 0 -2.359375 1.15625q-0.9375 1.140625 -0.9375 3.609375z" fill-rule="nonzero"/><path fill="#000000" d="m130.98082 142.93166q9.09375 -2.34375 10.21875 -9.84375l-14.250008 0l0 -2.0625l14.343758 0l0.84375 -0.28125l1.6875 1.03125q0.5625 0.46875 -0.1875 0.84375q-1.5 9.375 -10.96875 12.1875l-1.6875 -1.875zm10.59375 -15.187508l-12.9375 0l0 -2.0625l12.9375 0l0 2.0625zm23.15625 4.2187576q-4.96875 10.3125 -16.6875 10.875q-0.46875 1.21875 -0.9375 0.1875l-0.75 -2.4375q12.1875 -0.28125 16.40625 -10.03125l1.96875 1.40625zm-13.21875 0q-2.53125 -2.34375 -4.78125 -3.84375l1.59375 -1.9687576q1.96875 1.21875 4.96875 4.0312576l-1.78125 1.78125zm27.5625 5.34375q-4.96875 -2.53125 -8.15625 -3.375l0 9.75l-2.15625 0l0 -18.750008l1.875 0q1.125 0.09375 0.28125 0.75l0 5.9062576q4.59375 1.3125 9.28125 3.5625l-1.125 2.15625zm-0.1875 -8.25q-1.59375 -1.9687576 -3.1875 -3.1875076l1.21875 -0.9375q1.59375 1.21875 3.1875 3.1875076l-1.21875 0.9375zm2.25 -1.7812576q-1.21875 -1.59375 -3.09375 -3.09375l1.21875 -0.9375q1.59375 1.125 3.09375 3.09375l-1.21875 0.9375z" fill-rule="nonzero"/><path fill="#000000" fill-opacity="0.0" d="m200.27695 119.7979l155.3386 0.6614227" fill-rule="evenodd"/><path stroke="#595959" stroke-width="3.0" stroke-linejoin="round" stroke-linecap="butt" d="m200.27695 119.7979l137.33875 0.58478546" fill-rule="evenodd"/><path fill="#595959" stroke="#595959" stroke-width="3.0" stroke-linecap="butt" d="m337.5946 125.33783l13.635254 -4.8971863l-13.593079 -5.0131226z" fill-rule="evenodd"/><path fill="#000000" fill-opacity="0.0" d="m200.27695 119.7979l150.29922 69.480316" fill-rule="evenodd"/><path stroke="#595959" stroke-width="3.0" stroke-linejoin="round" stroke-linecap="butt" d="m200.27695 119.7979l133.96054 61.92729" fill-rule="evenodd"/><path fill="#595959" stroke="#595959" stroke-width="3.0" stroke-linecap="butt" d="m332.15823 186.22304l14.437012 1.2148743l-10.278473 -10.210571z" fill-rule="evenodd"/><path fill="#000000" fill-opacity="0.0" d="m774.7415 91.4042l91.811035 0l0 57.448814l-91.811035 0z" fill-rule="evenodd"/><path fill="#000000" d="m795.71735 114.36861l0 -17.1875l2.265625 0l0 15.15625l8.46875 0l0 2.03125l-10.734375 0zm21.285156 -1.53125q-1.171875 0.984375 -2.265625 1.40625q-1.078125 0.40625 -2.3125 0.40625q-2.046875 0 -3.15625 -1.0q-1.09375 -1.0 -1.09375 -2.5625q0 -0.921875 0.40625 -1.671875q0.421875 -0.75 1.09375 -1.203125q0.671875 -0.46875 1.515625 -0.703125q0.625 -0.15625 1.875 -0.3125q2.5625 -0.3125 3.765625 -0.734375q0.015625 -0.421875 0.015625 -0.546875q0 -1.28125 -0.609375 -1.8125q-0.796875 -0.71875 -2.390625 -0.71875q-1.5 0 -2.203125 0.53125q-0.703125 0.515625 -1.046875 1.84375l-2.0625 -0.28125q0.28125 -1.328125 0.921875 -2.140625q0.640625 -0.8125 1.859375 -1.25q1.21875 -0.453125 2.828125 -0.453125q1.59375 0 2.59375 0.375q1.0 0.375 1.46875 0.953125q0.46875 0.5625 0.65625 1.4375q0.09375 0.53125 0.09375 1.9375l0 2.8125q0 2.9375 0.140625 3.71875q0.140625 0.78125 0.53125 1.5l-2.203125 0q-0.328125 -0.65625 -0.421875 -1.53125zm-0.171875 -4.71875q-1.15625 0.46875 -3.453125 0.796875q-1.296875 0.1875 -1.84375 0.421875q-0.53125 0.234375 -0.828125 0.6875q-0.28125 0.453125 -0.28125 1.0q0 0.84375 0.625 1.40625q0.640625 0.5625 1.875 0.5625q1.21875 0 2.171875 -0.53125q0.953125 -0.53125 1.390625 -1.453125q0.34375 -0.71875 0.34375 -2.109375l0 -0.78125zm5.3945312 6.25l0 -12.453125l1.90625 0l0 1.78125q1.375 -2.0625 3.953125 -2.0625q1.125 0 2.0625 0.40625q0.953125 0.40625 1.421875 1.0625q0.46875 0.65625 0.65625 1.5625q0.125 0.578125 0.125 2.046875l0 7.65625l-2.109375 0l0 -7.578125q0 -1.28125 -0.25 -1.921875q-0.25 -0.640625 -0.875 -1.015625q-0.625 -0.390625 -1.46875 -0.390625q-1.34375 0 -2.328125 0.859375q-0.984375 0.859375 -0.984375 3.25l0 6.796875l-2.109375 0zm21.425781 0l0 -1.578125q-1.1875 1.859375 -3.484375 1.859375q-1.484375 0 -2.734375 -0.8125q-1.25 -0.828125 -1.9375 -2.296875q-0.671875 -1.46875 -0.671875 -3.390625q0 -1.859375 0.609375 -3.375q0.625 -1.515625 1.859375 -2.328125q1.25 -0.8125 2.78125 -0.8125q1.125 0 2.0 0.484375q0.890625 0.46875 1.4375 1.234375l0 -6.171875l2.09375 0l0 17.1875l-1.953125 0zm-6.671875 -6.21875q0 2.390625 1.0 3.578125q1.015625 1.1875 2.390625 1.1875q1.390625 0 2.34375 -1.125q0.96875 -1.140625 0.96875 -3.453125q0 -2.5625 -0.984375 -3.75q-0.984375 -1.203125 -2.421875 -1.203125q-1.40625 0 -2.359375 1.15625q-0.9375 1.140625 -0.9375 3.609375z" fill-rule="nonzero"/><path fill="#000000" d="m797.2564 143.26236q9.09375 -2.34375 10.21875 -9.84375l-14.25 0l0 -2.0625l14.34375 0l0.84375 -0.28125l1.6875 1.03125q0.5625 0.46875 -0.1875 0.84375q-1.5 9.375 -10.96875 12.1875l-1.6875 -1.875zm10.59375 -15.1875l-12.9375 0l0 -2.0625l12.9375 0l0 2.0625zm23.15625 4.21875q-4.96875 10.3125 -16.6875 10.875q-0.46875 1.21875 -0.9375 0.1875l-0.75 -2.4375q12.1875 -0.28125 16.40625 -10.03125l1.96875 1.40625zm-13.21875 0q-2.53125 -2.34375 -4.78125 -3.84375l1.59375 -1.96875q1.96875 1.21875 4.96875 4.03125l-1.78125 1.78125zm27.5625 5.34375q-4.96875 -2.53125 -8.15625 -3.375l0 9.75l-2.15625 0l0 -18.75l1.875 0q1.125 0.09375 0.28125 0.75l0 5.90625q4.59375 1.3125 9.28125 3.5625l-1.125 2.15625zm-0.1875 -8.25q-1.59375 -1.96875 -3.1875 -3.1875l1.21875 -0.9375q1.59375 1.21875 3.1875 3.1875l-1.21875 0.9375zm2.25 -1.78125q-1.21875 -1.59375 -3.09375 -3.09375l1.21875 -0.9375q1.59375 1.125 3.09375 3.09375l-1.21875 0.9375z" fill-rule="nonzero"/><path fill="#000000" fill-opacity="0.0" d="m774.7415 120.12861l-165.32281 2.4566956" fill-rule="evenodd"/><path stroke="#595959" stroke-width="3.0" stroke-linejoin="round" stroke-linecap="butt" d="m774.7416 120.12861l-147.32489 2.1892395" fill-rule="evenodd"/><path fill="#595959" stroke="#595959" stroke-width="3.0" stroke-linecap="butt" d="m627.3431 117.363205l-13.539185 5.156929l13.686401 4.752365z" fill-rule="evenodd"/><path fill="#000000" fill-opacity="0.0" d="m774.7415 120.12861l-163.90552 70.58268" fill-rule="evenodd"/><path stroke="#595959" stroke-width="3.0" stroke-linejoin="round" stroke-linecap="butt" d="m774.7416 120.12861l-147.37329 63.46337" fill-rule="evenodd"/><path fill="#595959" stroke="#595959" stroke-width="3.0" stroke-linecap="butt" d="m625.4084 179.04085l-10.544312 9.935822l14.46405 -0.8335266z" fill-rule="evenodd"/><path fill="#000000" fill-opacity="0.0" d="m441.09183 123.94226l81.19687 0l0 65.543304l-81.19687 0z" fill-rule="evenodd"/><path fill="#ffffff" d="m485.25278 139.98517q1.40625 6.9375 7.21875 10.875l-1.59375 2.0625q-6.09375 -4.5 -7.6875 -12.28125l2.0625 -0.65625zm-2.8125 -8.34375q0.9375 0.1875 0.09375 0.75l0 2.8125l8.8125 0l0 5.34375l-2.15625 0l0 -3.5625l-15.1875 0l0 3.5625l-2.15625 0l0 -5.34375l8.53125 0l0 -3.5625l2.0625 0zm-11.4375 19.6875q5.71875 -4.6875 7.03125 -11.25l2.4375 0.75q0.375 0.46875 -0.375 0.5625q-1.40625 6.5625 -7.3125 11.625l-1.78125 -1.6875z" fill-rule="nonzero"/><path fill="#ffffff" d="m458.93246 179.7539l0 -17.1875l2.28125 0l0 7.0625l8.921875 0l0 -7.0625l2.28125 0l0 17.1875l-2.28125 0l0 -8.09375l-8.921875 0l0 8.09375l-2.28125 0zm16.207031 -6.21875q0 -3.46875 1.921875 -5.125q1.609375 -1.390625 3.921875 -1.390625q2.5625 0 4.1875 1.6875q1.625 1.6875 1.625 4.640625q0 2.40625 -0.71875 3.78125q-0.71875 1.375 -2.09375 2.140625q-1.375 0.765625 -3.0 0.765625q-2.625 0 -4.234375 -1.671875q-1.609375 -1.6875 -1.609375 -4.828125zm2.171875 0q0 2.390625 1.03125 3.578125q1.046875 1.1875 2.640625 1.1875q1.5625 0 2.609375 -1.1875q1.046875 -1.203125 1.046875 -3.65625q0 -2.3125 -1.0625 -3.5q-1.046875 -1.1875 -2.59375 -1.1875q-1.59375 0 -2.640625 1.1875q-1.03125 1.1875 -1.03125 3.578125zm11.910156 6.21875l0 -17.1875l2.109375 0l0 17.1875l-2.109375 0zm13.910156 -4.015625l2.171875 0.28125q-0.515625 1.90625 -1.90625 2.96875q-1.390625 1.046875 -3.5625 1.046875q-2.734375 0 -4.34375 -1.671875q-1.59375 -1.6875 -1.59375 -4.734375q0 -3.140625 1.609375 -4.875q1.625 -1.734375 4.203125 -1.734375q2.5 0 4.078125 1.703125q1.59375 1.703125 1.59375 4.78125q0 0.1875 -0.015625 0.5625l-9.28125 0q0.109375 2.046875 1.15625 3.140625q1.046875 1.09375 2.609375 1.09375q1.15625 0 1.96875 -0.609375q0.828125 -0.609375 1.3125 -1.953125zm-6.9375 -3.40625l6.953125 0q-0.140625 -1.5625 -0.796875 -2.359375q-1.0 -1.21875 -2.609375 -1.21875q-1.453125 0 -2.453125 0.984375q-0.984375 0.96875 -1.09375 2.59375z" fill-rule="nonzero"/><path fill="#000000" fill-opacity="0.0" d="m741.93695 372.23096l133.95276 0l0 57.448822l-133.95276 0z" fill-rule="evenodd"/><path fill="#000000" d="m779.3938 395.19537l0 -17.1875l2.328125 0l9.03125 13.5l0 -13.5l2.171875 0l0 17.1875l-2.328125 0l-9.015625 -13.5l0 13.5l-2.1875 0zm16.300781 -6.21875q0 -3.46875 1.921875 -5.125q1.609375 -1.390625 3.921875 -1.390625q2.5625 0 4.1875 1.6875q1.625 1.6875 1.625 4.640625q0 2.40625 -0.71875 3.78125q-0.71875 1.375 -2.09375 2.140625q-1.375 0.765625 -3.0 0.765625q-2.625 0 -4.234375 -1.671875q-1.609375 -1.6875 -1.609375 -4.828125zm2.171875 0q0 2.390625 1.03125 3.578125q1.046875 1.1875 2.640625 1.1875q1.5625 0 2.609375 -1.1875q1.046875 -1.203125 1.046875 -3.65625q0 -2.3125 -1.0625 -3.5q-1.046875 -1.1875 -2.59375 -1.1875q-1.59375 0 -2.640625 1.1875q-1.03125 1.1875 -1.03125 3.578125zm16.566406 4.328125l0.3125 1.859375q-0.890625 0.203125 -1.59375 0.203125q-1.15625 0 -1.796875 -0.359375q-0.625 -0.375 -0.890625 -0.96875q-0.25 -0.59375 -0.25 -2.484375l0 -7.171875l-1.546875 0l0 -1.640625l1.546875 0l0 -3.078125l2.09375 -1.265625l0 4.34375l2.125 0l0 1.640625l-2.125 0l0 7.28125q0 0.90625 0.109375 1.171875q0.125 0.25 0.375 0.40625q0.25 0.140625 0.71875 0.140625q0.34375 0 0.921875 -0.078125zm10.183594 -2.671875l2.078125 0.265625q-0.34375 2.15625 -1.75 3.375q-1.390625 1.203125 -3.4375 1.203125q-2.546875 0 -4.109375 -1.671875q-1.546875 -1.671875 -1.546875 -4.78125q0 -2.015625 0.671875 -3.53125q0.671875 -1.515625 2.03125 -2.265625q1.359375 -0.765625 2.96875 -0.765625q2.03125 0 3.3125 1.03125q1.296875 1.03125 1.65625 2.90625l-2.046875 0.328125q-0.296875 -1.265625 -1.046875 -1.890625q-0.734375 -0.640625 -1.796875 -0.640625q-1.59375 0 -2.59375 1.15625q-0.984375 1.140625 -0.984375 3.609375q0 2.5 0.953125 3.640625q0.96875 1.140625 2.515625 1.140625q1.234375 0 2.0625 -0.765625q0.84375 -0.765625 1.0625 -2.34375zm3.875 4.5625l0 -17.1875l2.109375 0l0 6.171875q1.484375 -1.71875 3.734375 -1.71875q1.375 0 2.390625 0.546875q1.03125 0.546875 1.46875 1.515625q0.4375 0.953125 0.4375 2.78125l0 7.890625l-2.109375 0l0 -7.890625q0 -1.578125 -0.6875 -2.296875q-0.6875 -0.71875 -1.9375 -0.71875q-0.9375 0 -1.765625 0.484375q-0.828125 0.484375 -1.1875 1.3125q-0.34375 0.828125 -0.34375 2.296875l0 6.8125l-2.109375 0z" fill-rule="nonzero"/><path fill="#000000" d="m766.8196 413.1204l0 5.34375q0 0.75 0.65625 0.75l1.59375 0q1.5 0 1.78125 -2.90625l1.875 0.75q-0.5625 3.9375 -3.0 3.9375l-3.1875 0q-1.59375 0 -1.59375 -1.59375l0 -5.90625l-2.4375 0.5625l-0.375 -2.0625l2.8125 -0.5625l0 -6.1875l1.78125 0q0.9375 0.1875 0.09375 0.75l0 5.0625l4.875 -1.21875l0.46875 1.96875l-5.34375 1.3125zm13.21875 8.4375q0.46875 -7.59375 0.46875 -12.84375l-3.5625 0q0 8.71875 -1.3125 11.25q-2.0625 4.03125 -7.3125 5.8125l-0.9375 -2.0625q5.15625 -1.6875 6.5625 -5.0625q1.03125 -2.4375 1.03125 -9.9375l-3.65625 0l0 -2.0625l11.25 0q0 6.9375 -0.5625 15.75q-0.1875 3.09375 -2.8125 3.09375l-2.53125 0l-0.1875 -2.0625l2.25 0q1.21875 0 1.3125 -1.875zm20.53125 -8.25q0.09375 -1.78125 -1.03125 -1.78125q-1.59375 0 -6.1875 4.59375l0 9.375l-1.875 0l0 -7.6875l-4.125 5.15625l-1.5 -1.5l3.75 -4.40625q1.03125 -1.3125 1.875 -2.71875l0 -2.25l-4.125 1.40625l-0.5625 -1.96875l4.6875 -1.21875l0 -5.53125l1.6875 0q0.84375 0.1875 0.1875 0.75l0 4.21875l1.03125 0.5625q0.84375 0.375 -0.1875 0.84375l-0.84375 1.78125l0 0.65625q4.40625 -4.125 6.65625 -4.125q2.8125 0 2.53125 3.75l-0.46875 7.21875q-0.09375 1.5 1.125 1.5q1.21875 0 1.78125 -0.65625q0.84375 -1.03125 1.40625 -2.4375l1.59375 1.3125q-0.9375 1.78125 -1.78125 2.625q-1.21875 1.21875 -2.8125 1.21875q-3.46875 0 -3.28125 -3.5625l0.46875 -7.125zm29.15625 8.25q-4.59375 -3.75 -5.625 -8.4375q-1.5 5.4375 -6.09375 8.8125l-1.3125 -2.15625q6.46875 -4.5 6.375 -12.0l-4.3125 0l0 -2.0625l6.1875 0q-0.46875 9.5625 6.28125 13.78125l-1.5 2.0625zm-19.40625 2.15625q1.6875 -0.75 3.75 -1.96875l0 -5.8125l-3.5625 0l0 -2.0625l5.4375 0l0 7.875q1.125 1.40625 4.59375 1.40625l11.15625 0l-0.375 2.0625l-10.78125 0q-3.84375 0 -5.71875 -2.25q-1.78125 1.6875 -3.375 2.8125l-1.125 -2.0625zm3.0 -18.46875q1.78125 1.125 3.65625 3.46875l-1.6875 1.6875q-1.6875 -2.15625 -3.5625 -3.5625l1.59375 -1.59375zm37.96875 12.84375q-0.9375 4.21875 -3.65625 7.21875l-1.96875 -1.125q2.90625 -2.71875 3.84375 -6.75q-3.28125 -1.21875 -6.65625 -1.6875q-2.53125 5.4375 -3.375 6.28125q-1.125 1.125 -2.625 1.125q-1.125 0 -1.875 -0.75q-0.84375 -0.84375 -0.84375 -2.53125q0 -1.96875 1.875 -3.84375q2.0625 -2.0625 5.53125 -2.0625q1.125 -2.90625 2.0625 -5.4375q-2.625 0.65625 -5.25 1.21875l-0.84375 -1.875q3.09375 -0.375 5.90625 -1.03125l1.125 -0.46875l1.59375 1.21875q0.9375 0.5625 -0.09375 0.84375q-1.21875 2.15625 -2.625 5.625q3.0 0.375 6.375 1.5q0.1875 -2.25 0.09375 -5.53125l1.78125 0.375q1.03125 0.1875 0.1875 0.75q0 3.09375 -0.1875 5.0625q1.78125 0.65625 4.125 1.875l-0.9375 1.875q-1.96875 -1.125 -3.5625 -1.875zm-10.40625 -2.34375q-2.15625 0 -3.46875 1.3125q-1.5 1.5 -1.5 2.8125q0 0.5625 0.375 0.9375q0.28125 0.28125 0.84375 0.28125q0.84375 0 1.5 -1.03125q0.5625 -0.84375 2.25 -4.3125z" fill-rule="nonzero"/><path fill="#000000" fill-opacity="0.0" d="m757.22833 402.65878l-133.57477 -37.921265" fill-rule="evenodd"/><path stroke="#595959" stroke-width="3.0" stroke-linejoin="round" stroke-linecap="butt" d="m757.22833 402.65878l-116.25903 -33.0054" fill-rule="evenodd"/><path fill="#595959" stroke="#595959" stroke-width="3.0" stroke-linecap="butt" d="m642.3226 364.88657l-14.450073 1.048706l11.743469 8.484924z" fill-rule="evenodd"/></g></svg>